# xmcd CD database file
#
# Track frame offsets:
#	150
#	40032
#	68007
#	95002
#	122080
#	148075
#	176252
#	209065
#	237416
#	275525
#	297428
#	322778
#
# Disc length: 4551 seconds
#
# Revision: 0
# Processed by: cddbd v1.5.2PL0 Copyright (c) Steve Scherf et al.
# Submitted via: CDex 1.77
#
DISCID=b511c50c
DTITLE=Musica Jazz (Magazine) - Booker Ervin - Black and Blue
DYEAR=2018
DGENRE=Jazz
TTITLE0=Home is Africa
TTITLE1=A tune for Richard
TTITLE2=Back from the Gig
TTITLE3=Dexi
TTITLE4=Kucheza Blues
TTITLE5=Happy frame of mind
TTITLE6=Mooche Mooche
TTITLE7=Black and blue
TTITLE8=Tune in
TTITLE9=Just in time
TTITLE10=No land's man
TTITLE11=Mour
EXTD=YEAR: 2018
EXTT0=
EXTT1=
EXTT2=
EXTT3=
EXTT4=
EXTT5=
EXTT6=
EXTT7=
EXTT8=
EXTT9=
EXTT10=
EXTT11=
PLAYORDER=
